<svg xmlns="http://www.w3.org/2000/svg" xmlns:xlink="http://www.w3.org/1999/xlink" width="110" height="110"><defs><path id="a" d="M0 24.046C29.183 27.596 44.16 8.58 44.16 8.58 35.71 2.707 28.79.463 23.146.463 4.86.463 0 24.045 0 24.045z"/><path id="b" d="M.424 7.593c.067.125 2.824 12.104 14.045 21.134 0 0 2.789-21.568-4.54-28.293L.425 7.594z"/><path id="d" d="M6.905.172C4.741.66 2.703 2.109 1.711 3.863.5 6.02.697 7.032 1.178 9.113c.06.803 1.076 3.296 1.064 4.1-.018 1.211-.719 2.245-.903 3.444-.195 1.463-.375 2.95.382 4.27.626 1.1 1.676 1.843 2.866 2.03 1.338.21 2.681-.358 3.524-1.492a8.674 8.674 0 0 0 1.297-2.993c.049-.187.1-.377.15-.572.252-.974.514-1.98 1.03-2.753.302-.43.628-.843.977-1.233a11.4 11.4 0 0 0 1.34-1.77 10.106 10.106 0 0 0 1.282-3.85c.302-2.692-.446-5.219-2.007-6.762C11.172.523 9.852 0 8.39 0c-.482 0-.979.057-1.485.172z"/><path id="f" d="M5.763.378L.823.464v24.074h5.26c1.033-1.1 1.557-1.896 1.573-2.388.43-13.183-.857-20.03-.857-20.761 0-.686-.271-1.026-.814-1.026-.069 0-.144.004-.222.015z"/><path id="h" d="M.71 3.697c-1.394.955 2.933 2.029 2.933 2.029.113 0 1.861-1.55 4.136-.24 0 0-1.268-2.325-4.866-.655 0 0 2.304-1.311 2.755-2.802 0 0-2.193 1.668-3.992 1.848 0 0 1.517-2.505 0-3.877 0 0 .428 2.744-.967 3.697z"/><path id="j" d="M4.69.16C2.925.613 1.26 1.958.452 3.587c-.117.235-.168.925.315.559.756-.571 2.412-2.475 4.021-3.157C5.69.608 7.573.79 8.51 2.025c1.212 1.599 1.56 4.807 1.781 5.85.07.335.334-.102.34-.174.248-2.499-.363-4.845-1.635-6.277C8.172.486 7.096.002 5.902.002c-.393 0-.798.052-1.212.159z"/><path id="l" d="M.6.328C.384.345-.105.605.388.796c.767.3 2.886.674 4.164 1.543.714.485 1.554 1.922 1.206 3.127-.14.485-2.307.8-2.654 1.266-.767 1.032.056 2.112-.346 2.532-.188.194.238.195.291.171 1-.5 0-1.631.594-2.393.473-.603 2.63-.804 2.765-1.483.274-1.323-.211-2.628-1.352-3.648C3.947.92 2.377.314.964.314.842.314.72.319.6.328z"/></defs><g fill="none" fill-rule="evenodd"><path fill="#F85161" d="M55 113c14.912 0 27-1.893 27-9.072C82 96.748 69.912 87 55 87s-27 13.742-27 20.921c0 7.18 12.088 5.079 27 5.079z"/><path fill="#EFBAA4" d="M46.46 30.524c-8.091 2.89-12.578 4.907-13.46 6.055v24.337c0 6.974 4.223 13.34 9.819 17.298 0 0 4.443 2.99 4.443 4.554v5.048c0 5.032 16.476 3.376 16.476.01v-5.044c0-1.565 4.443-4.554 4.443-4.554C73.777 74.268 78 67.903 78 60.928L75.3 27c-6.18 6.055-29.047 4.933-28.84 3.524"/><use fill="#00234B" transform="translate(30 18)" xlink:href="#a"/><g transform="translate(64 25)"><mask id="c" fill="#fff"><use xlink:href="#b"/></mask><path fill="#00234B" d="M-6.195 35.222h27.803V-6.063H-6.195z" mask="url(#c)"/></g><g transform="translate(70 47)"><mask id="e" fill="#fff"><use xlink:href="#d"/></mask><path fill="#EFBAA4" d="M-6.015 29.9H21.07V-6.9H-6.015z" mask="url(#e)"/></g><g transform="translate(67 48)"><mask id="g" fill="#fff"><use xlink:href="#f"/></mask><path fill="#EFBAA4" d="M-5.844 31.48h20.255V-6.582H-5.844z" mask="url(#g)"/></g><g transform="translate(71 21)"><mask id="i" fill="#fff"><use xlink:href="#h"/></mask><path fill="#00234B" d="M-6.233 12.726h20.678V-7H-6.233z" mask="url(#i)"/></g><path stroke="#CD937B" stroke-linecap="square" d="M46.122 64C44.467 63.294 43 62.34 43 61.14s3.344-6.255 5-9.14"/><g transform="translate(72 49)"><mask id="k" fill="#fff"><use xlink:href="#j"/></mask><path fill="#CD937B" d="M-6.757 15.5h24.573v-23H-6.757z" mask="url(#k)"/></g><g transform="translate(73 54)"><mask id="m" fill="#fff"><use xlink:href="#l"/></mask><path fill="#CD937B" d="M4.728-9.946L17.311 7.82 1.081 18.245-11.498.48z" mask="url(#m)"/></g></g></svg>