<svg xmlns="http://www.w3.org/2000/svg" xmlns:xlink="http://www.w3.org/1999/xlink" width="110" height="110"><defs><circle id="a" cx="55" cy="55" r="55"/><path id="c" d="M0 .165h8.628V128H0z"/><path id="e" d="M.097 126.746L0 1.425C0 .735.564.17 1.254.169l6.02-.004a1.257 1.257 0 0 1 1.257 1.254l.097 125.321a1.26 1.26 0 0 1-1.254 1.256L1.353 128a1.258 1.258 0 0 1-1.256-1.254"/><path id="g" d="M.024.216H19.19v2.87H.024z"/></defs><g fill="none" fill-rule="evenodd"><mask id="b" fill="#fff"><use xlink:href="#a"/></mask><g mask="url(#b)"><g transform="rotate(-15 121.82 -116.163)"><mask id="d" fill="#fff"><use xlink:href="#c"/></mask><g mask="url(#d)"><mask id="f" fill="#fff"><use xlink:href="#e"/></mask><use fill="#00E6AF" xlink:href="#e"/><path fill="#1AF3BF" d="M5.347-.638h3.28v102.379h-3.28z" mask="url(#f)"/></g></g><path fill="#FFF" d="M45.213 29.967l-.434-1.617a.592.592 0 0 1 .417-.724l17.368-4.668a.592.592 0 0 1 .724.417l.435 1.616a.593.593 0 0 1-.418.724l-17.369 4.668a.592.592 0 0 1-.723-.416m1.272 4.732l-.434-1.617a.592.592 0 0 1 .417-.723l17.368-4.669a.592.592 0 0 1 .724.417l.435 1.617a.593.593 0 0 1-.418.724L47.21 35.116a.592.592 0 0 1-.724-.417m1.271 4.732l-.434-1.616a.593.593 0 0 1 .416-.725l17.37-4.667a.592.592 0 0 1 .723.417l.435 1.616a.593.593 0 0 1-.418.724L48.48 39.848a.592.592 0 0 1-.723-.417m1.272 4.733l-.434-1.617a.593.593 0 0 1 .416-.724l17.37-4.668a.591.591 0 0 1 .723.417l.435 1.617a.593.593 0 0 1-.418.723l-17.368 4.669a.592.592 0 0 1-.724-.417m1.271 4.732l-.433-1.616a.593.593 0 0 1 .416-.725l17.369-4.667a.591.591 0 0 1 .724.417l.435 1.616a.593.593 0 0 1-.418.724l-17.369 4.668a.592.592 0 0 1-.723-.417m1.272 4.732l-.435-1.616a.591.591 0 0 1 .417-.724l17.369-4.668a.592.592 0 0 1 .724.418l.435 1.615a.593.593 0 0 1-.418.725l-17.369 4.667a.591.591 0 0 1-.723-.417"/><g transform="rotate(-15 238.352 -170.142)"><mask id="h" fill="#fff"><use xlink:href="#g"/></mask><path fill="#FFF" d="M.025 2.495L.024.821c0-.324.265-.59.59-.59L18.599.216c.325 0 .59.266.59.591l.003 1.673a.594.594 0 0 1-.591.592L.616 3.086a.591.591 0 0 1-.591-.59" mask="url(#h)"/></g></g></g></svg>