<svg xmlns="http://www.w3.org/2000/svg" xmlns:xlink="http://www.w3.org/1999/xlink" width="110" height="110"><defs><path id="a" d="M0 .385h42.474v42.188H0z"/></defs><g transform="rotate(-45 62.663 33.027)" fill="none" fill-rule="evenodd"><g transform="translate(24 .04)"><mask id="b" fill="#fff"><use xlink:href="#a"/></mask><path fill="#001E4B" d="M42.474 21.479c0 11.65-9.51 21.094-21.237 21.094C9.508 42.573 0 33.129 0 21.479S9.508.385 21.237.385c11.728 0 21.237 9.443 21.237 21.094" mask="url(#b)"/></g><path fill="#F1F1F1" d="M60.97 21.518c0 8.63-7.043 15.629-15.734 15.629-8.689 0-15.732-6.998-15.732-15.629 0-8.63 7.043-15.628 15.732-15.628 8.69 0 15.734 6.998 15.734 15.628"/><path fill="#FFF" d="M45.68 8.158s11.919-.52 12.387 13.36c0 0-3.629-9.85-12.388-13.36"/><path fill="#EDA681" d="M31.168 66.105l-.39 61.758 19.468.123.39-61.758z"/><path fill="#EEA480" d="M49.915 86.678l-6.287-.148c-2.347-.056-4.21-1.809-4.161-3.915l.554-23.291c.05-2.106 1.993-3.768 4.342-3.711l5.76 1.535c2.865 1.274 4.655 3.92 4.587 6.781l-.452 19.038c-.051 2.105-1.995 3.767-4.343 3.711"/><path fill="#001E4B" d="M43.086 54.406h3.763V41.094h-3.763z"/><path fill="#001E4B" d="M45.234 81.617h-.533c-2.483 0-4.512-2.018-4.512-4.48V52.228c0-2.463 2.03-4.479 4.512-4.479h.533c2.481 0 4.51 2.016 4.51 4.48v24.906c0 2.463-2.029 4.48-4.51 4.48"/><path fill="#EEA480" d="M41.605 52.721c2.301.14 4.05 2.117 3.964 4.42-.06 1.615-.96 4.057-3.261 3.917l-.595-.022c.707.048 3.549.484 3.533 4.444-.01 2.305-2.12 4.051-4.42 3.91l1.435.187c2.238.278 2.683 2.274 2.564 4.24a4.171 4.171 0 0 1-4.315 3.913c-.351-.035-.584-.018-.584-.018l.479.017c.034.003.07 0 .105 0 1.09.112 3.327.74 3.314 4.038-.01 2.304-1.937 3.666-4.237 3.526l-4.954-.025a6.875 6.875 0 0 1-6.842-6.917l.113-17.952c.043-6.8 6.638-7.856 9.82-7.835l3.881.157z"/><rect width="6" height="5" x="46" y="57.414" fill="#EEA480" rx="2.5"/></g></svg>