<svg xmlns="http://www.w3.org/2000/svg" xmlns:xlink="http://www.w3.org/1999/xlink" width="110" height="110"><defs><path id="a" d="M0 .5h45v79H0z"/></defs><g transform="translate(32 13)" fill="none" fill-rule="evenodd"><mask id="b" fill="#fff"><use xlink:href="#a"/></mask><path fill="#DFC4FB" d="M38.268 55.327l-10.065.002H6.316a1.7 1.7 0 0 1-1.697-1.693c0-.93.659-1.749 1.574-2.019l3.79-1.445c8.106 3.14 20.926 5.506 29.416-5.738 12.563-16.638 1.28-33.789-7.412-34.792V2.789A2.298 2.298 0 0 0 29.694.5 2.298 2.298 0 0 0 27.4 2.79v8.345c-4.113 4.43-1.82 17.152-15.292 22.548C-3.939 40.11 2.387 46.42 2.387 46.42s.873.57 2.371 1.367l-.658.283c-2.38.832-4.1 3.094-4.1 5.744 0 3.35 2.747 6.092 6.105 6.092h30.633v-.003h1.32a1.7 1.7 0 0 1 1.696 1.693 1.7 1.7 0 0 1-1.697 1.693H6.718c-.703 0-1.375.127-2.005.346-2.38.835-4.1 3.097-4.1 5.745a6 6 0 0 0 .659 2.731c1.007 1.988 3.072 3.361 5.446 3.361l26.974.024c.908 0 1.65.722 1.69 1.618-.001.026-.008.05-.008.074A2.315 2.315 0 0 0 37.69 79.5a2.314 2.314 0 0 0 2.316-2.312c0-.06-.012-.117-.016-.177h.016a6.01 6.01 0 0 0-.658-2.732c-1.008-1.987-3.072-3.36-5.447-3.36H3.27l3.66-.023a1.7 1.7 0 0 1-1.697-1.694 1.7 1.7 0 0 1 1.697-1.693h31.339c.703 0 1.375-.125 2.005-.346 2.38-.833 4.1-3.095 4.1-5.745 0-3.35-2.748-6.09-6.105-6.09" mask="url(#b)"/><circle cx="26.5" cy="37.5" r="2.5" fill="#FFF04B" mask="url(#b)"/><circle cx="27.5" cy="30.5" r="2.5" fill="#FFF04B" mask="url(#b)"/><circle cx="18.5" cy="46.5" r="2.5" fill="#FFF04B" mask="url(#b)"/><circle cx="35" cy="36" r="4" fill="#FFF04B" mask="url(#b)"/><circle cx="13" cy="44" r="2" fill="#FFF04B" mask="url(#b)"/><circle cx="34" cy="28" r="2" fill="#FFF04B" mask="url(#b)"/></g></svg>