<svg xmlns="http://www.w3.org/2000/svg" xmlns:xlink="http://www.w3.org/1999/xlink" width="110" height="110"><defs><circle id="a" cx="55" cy="55" r="55"/><path id="c" d="M0 .121h42.468v40.682H0z"/></defs><g fill="none" fill-rule="evenodd"><mask id="b" fill="#fff"><use xlink:href="#a"/></mask><g mask="url(#b)"><g transform="translate(25 22.868)"><mask id="d" fill="#fff"><use xlink:href="#c"/></mask><path fill="#00234B" d="M21.4 40.803h-.331c-14.213 0-16.15-8.26-19.667-23.254-.206-.877-.417-1.779-.638-2.707C-.652 8.88-.098 4.632 2.413 2.222 5.725-.958 11.068.403 11.294.462l-.51 1.895c-.042-.01-4.496-1.13-6.996 1.28-1.97 1.899-2.337 5.518-1.093 10.758.22.929.433 1.833.639 2.712C6.834 32.03 8.432 38.84 21.069 38.84h.33c12.638 0 14.235-6.811 17.736-21.735.206-.879.418-1.783.638-2.712 1.246-5.246.876-8.868-1.099-10.764-2.515-2.416-6.945-1.286-6.99-1.274L31.174.46c.226-.06 5.57-1.42 8.882 1.762 2.51 2.41 3.065 6.655 1.648 12.62-.22.927-.432 1.829-.637 2.706-3.517 14.994-5.454 23.254-19.668 23.254" mask="url(#d)"/></g><path d="M57.886 24.066c0 1.975-1.657 3.576-3.701 3.576-2.045 0-3.702-1.601-3.702-3.576s1.657-3.576 3.702-3.576c2.044 0 3.701 1.601 3.701 3.576m-15.737-.036c0 1.975-1.658 3.576-3.702 3.576s-3.702-1.6-3.702-3.575 1.658-3.576 3.702-3.576 3.702 1.6 3.702 3.576" fill="#FF6474"/><path fill="#00234B" d="M43.273 67.524h6.09v-6.035h-6.09z"/><path fill="#00234B" d="M55.327 90.455c-5.304 0-9.618-4.671-9.618-10.413v-15.31h1.926v15.31c0 4.592 3.45 8.327 7.692 8.327 4.241 0 7.691-3.735 7.691-8.327V73.11c0-5.742 4.315-10.413 9.619-10.413 5.303 0 9.618 4.671 9.618 10.413v3.466h-1.927V73.11c0-4.592-3.45-8.327-7.691-8.327-4.242 0-7.692 3.735-7.692 8.327v6.933c0 5.742-4.315 10.413-9.618 10.413"/><path fill="#F2DC16" d="M76.164 80.8c0 2.666 2.181 4.827 4.872 4.827s4.873-2.161 4.873-4.828c0-2.666-2.182-4.827-4.873-4.827-2.69 0-4.872 2.161-4.872 4.827"/><path fill="#00234B" d="M81.036 77.841c-1.646 0-2.986 1.327-2.986 2.959 0 1.63 1.34 2.957 2.986 2.957 1.647 0 2.986-1.326 2.986-2.957 0-1.632-1.34-2.959-2.986-2.959m0 7.786c-2.687 0-4.872-2.166-4.872-4.827 0-2.662 2.185-4.828 4.872-4.828s4.873 2.166 4.873 4.828c0 2.66-2.186 4.827-4.873 4.827"/></g></g></svg>