<svg xmlns="http://www.w3.org/2000/svg" xmlns:xlink="http://www.w3.org/1999/xlink" width="110" height="110"><defs><circle id="a" cx="55" cy="55" r="55"/></defs><g fill="none" fill-rule="evenodd"><mask id="b" fill="#fff"><use xlink:href="#a"/></mask><g mask="url(#b)"><path stroke="#03D09F" stroke-width="2" d="M30 35s-4.5 3.754 0 7.056S30 48 30 48m5-15s-4.5 4.042 0 7.599C39.5 44.155 35 47 35 47"/><path fill="#FFF" d="M12.595 59.618c-1.438-.647-2.135-2.123-1.805-3.702.345-1.647 1.55-2.678 3.17-2.697 0 0 1.576-.239 1.921 1.068l.136.515c.394 1.497.793 2.993 1.214 4.575-1.533.423-3.051.954-4.636.241m37.811-8.616c-11.586-.002-23.171-.007-34.757.01a9.872 9.872 0 0 0-2.367.27c-4.102 1.029-5.66 5.845-2.881 8.88 1.205 1.318 2.822 1.72 4.519 1.733 1.016.008 2.034-.209 3.104-.33l.07.203c1.349 3.92 3.389 7.45 5.956 10.688.309.39.64.546 1.147.544 5.006-.02 10.011-.012 15.017-.012 2.357 0 2.356 0 3.752-1.89 2.832-3.834 4.697-8.126 5.954-12.699.658-2.395 1.099-4.828 1.08-7.369-.216-.01-.405-.028-.594-.028"/><path fill="#F1F1F1" d="M40.336 71H39s8.508-14.857 9-19c0 0-1.266 12.37-7.664 19z"/></g><g mask="url(#b)"><path stroke="#03D09F" stroke-width="2" d="M80 35s4.5 3.754 0 7.056S80 48 80 48m-5-15s4.5 4.042 0 7.599C70.5 44.155 75 47 75 47"/><path fill="#FFF" d="M97.405 59.618c1.438-.647 2.135-2.123 1.805-3.702-.345-1.647-1.55-2.678-3.17-2.697 0 0-1.576-.239-1.921 1.068l-.136.515c-.394 1.497-.793 2.993-1.214 4.575 1.533.423 3.051.954 4.636.241m-37.811-8.616c11.586-.002 23.171-.007 34.757.01.79.001 1.603.077 2.367.27 4.102 1.029 5.66 5.845 2.881 8.88-1.205 1.318-2.822 1.72-4.519 1.733-1.016.008-2.034-.209-3.104-.33l-.07.203c-1.349 3.92-3.389 7.45-5.956 10.688-.309.39-.64.546-1.147.544-5.006-.02-10.011-.012-15.017-.012-2.357 0-2.356 0-3.752-1.89-2.832-3.834-4.697-8.126-5.954-12.699-.658-2.395-1.099-4.828-1.08-7.369.216-.01.405-.028.594-.028"/><path fill="#F1F1F1" d="M83.336 71H82s8.508-14.857 9-19c0 0-1.266 12.37-7.664 19z"/></g></g></svg>